<?xml version="1.0" encoding="UTF-8" standalone="no"?>
<svg
   xmlns:dc="http://purl.org/dc/elements/1.1/"
   xmlns:cc="http://creativecommons.org/ns#"
   xmlns:rdf="http://www.w3.org/1999/02/22-rdf-syntax-ns#"
   xmlns:svg="http://www.w3.org/2000/svg"
   xmlns="http://www.w3.org/2000/svg"
   xmlns:xlink="http://www.w3.org/1999/xlink"
   xmlns:sodipodi="http://sodipodi.sourceforge.net/DTD/sodipodi-0.dtd"
   xmlns:inkscape="http://www.inkscape.org/namespaces/inkscape"
   inkscape:export-ydpi="113.21"
   inkscape:export-xdpi="113.21"
   inkscape:export-filename="B:\Data\Books\im-wb\img\im-wb-cover.png"
   sodipodi:docname="im-wb-cover.svg"
   inkscape:version="1.0 (4035a4fb49, 2020-05-01)"
   id="svg8"
   version="1.1"
   viewBox="0 0 112.18333 171.45"
   height="17.145cm"
   width="11.218332cm">
  <defs
     id="defs2">
    <linearGradient
       id="linearGradient5278"
       inkscape:collect="always">
      <stop
         id="stop5274"
         offset="0"
         style="stop-color:#ffffff;stop-opacity:1" />
      <stop
         id="stop5276"
         offset="1"
         style="stop-color:#d1d1d1;stop-opacity:0.9955157" />
    </linearGradient>
    <linearGradient
       id="linearGradient834"
       inkscape:collect="always">
      <stop
         id="stop830"
         offset="0"
         style="stop-color:#003782;stop-opacity:1" />
      <stop
         id="stop832"
         offset="1"
         style="stop-color:#00204b;stop-opacity:1" />
    </linearGradient>
    <linearGradient
       gradientTransform="matrix(11.063416,0,0,6.9023256,171.45002,-472.47447)"
       gradientUnits="userSpaceOnUse"
       y2="60.325001"
       x2="0"
       y1="60.325001"
       x1="-15.497024"
       id="linearGradient836"
       xlink:href="#linearGradient834"
       inkscape:collect="always" />
    <linearGradient
       gradientUnits="userSpaceOnUse"
       y2="127.38069"
       x2="73.363724"
       y1="53.629177"
       x1="40.39257"
       id="linearGradient5280"
       xlink:href="#linearGradient5278"
       inkscape:collect="always" />
  </defs>
  <sodipodi:namedview
     units="cm"
     inkscape:snap-global="true"
     inkscape:document-rotation="0"
     inkscape:snap-bbox-midpoints="true"
     inkscape:snap-bbox-edge-midpoints="true"
     inkscape:bbox-nodes="true"
     inkscape:bbox-paths="true"
     inkscape:snap-bbox="true"
     inkscape:window-maximized="1"
     inkscape:window-y="-9"
     inkscape:window-x="-9"
     inkscape:window-height="1013"
     inkscape:window-width="1920"
     fit-margin-bottom="0"
     fit-margin-right="0"
     fit-margin-left="0"
     fit-margin-top="0"
     inkscape:snap-page="true"
     showgrid="false"
     inkscape:current-layer="layer1"
     inkscape:document-units="mm"
     inkscape:cy="273.42996"
     inkscape:cx="166.4518"
     inkscape:zoom="1.3"
     inkscape:pageshadow="2"
     inkscape:pageopacity="0.0"
     borderopacity="1.0"
     bordercolor="#666666"
     pagecolor="#ffffff"
     id="base" />
  <metadata
     id="metadata5">
    <rdf:RDF>
      <cc:Work
         rdf:about="">
        <dc:format>image/svg+xml</dc:format>
        <dc:type
           rdf:resource="http://purl.org/dc/dcmitype/StillImage" />
        <dc:title></dc:title>
      </cc:Work>
    </rdf:RDF>
  </metadata>
  <g
     id="layer1"
     inkscape:groupmode="layer"
     inkscape:label="Layer 1">
    <rect
       transform="rotate(90)"
       y="-112.18333"
       x="-8.1990747e-06"
       height="112.18333"
       width="171.45001"
       id="rect828"
       style="color:#000000;clip-rule:nonzero;display:inline;overflow:visible;visibility:visible;opacity:1;isolation:auto;mix-blend-mode:normal;color-interpolation:sRGB;color-interpolation-filters:linearRGB;solid-color:#000000;solid-opacity:1;fill:url(#linearGradient836);fill-opacity:1;fill-rule:nonzero;stroke:none;stroke-width:13.1079;stroke-linecap:square;stroke-linejoin:miter;stroke-miterlimit:4;stroke-dasharray:none;stroke-dashoffset:0;stroke-opacity:1;color-rendering:auto;image-rendering:auto;shape-rendering:auto;text-rendering:auto;enable-background:accumulate" />
    <rect
       y="5.9545784"
       x="62.933033"
       height="7.9084249"
       width="49.250294"
       id="rect838"
       style="color:#000000;clip-rule:nonzero;display:inline;overflow:visible;visibility:visible;opacity:1;isolation:auto;mix-blend-mode:normal;color-interpolation:sRGB;color-interpolation-filters:linearRGB;solid-color:#000000;solid-opacity:1;fill:#ffffff;fill-opacity:1;fill-rule:nonzero;stroke:none;stroke-width:1.42478;stroke-linecap:square;stroke-linejoin:miter;stroke-miterlimit:4;stroke-dasharray:none;stroke-dashoffset:0;stroke-opacity:1;color-rendering:auto;image-rendering:auto;shape-rendering:auto;text-rendering:auto;enable-background:accumulate" />
    <text
       id="text842"
       y="11.785893"
       x="64.537125"
       style="font-style:normal;font-variant:normal;font-weight:normal;font-stretch:normal;font-size:5.64444px;line-height:3.70417px;font-family:'Fira Code iScript';-inkscape-font-specification:'Fira Code iScript';letter-spacing:0px;word-spacing:0px;fill:#000000;fill-opacity:1;stroke:none;stroke-width:0.264583px;stroke-linecap:butt;stroke-linejoin:miter;stroke-opacity:1"
       xml:space="preserve"><tspan
         style="font-style:normal;font-variant:normal;font-weight:bold;font-stretch:normal;font-family:Enriqueta;-inkscape-font-specification:'Enriqueta Bold';stroke-width:0.264583px"
         y="11.785893"
         x="64.537125"
         id="tspan840"
         sodipodi:role="line">https://im-wb.com</tspan></text>
    <text
       xml:space="preserve"
       style="font-style:normal;font-variant:normal;font-weight:normal;font-stretch:normal;font-size:9.525px;line-height:3.33375px;font-family:'Fira Code iScript';-inkscape-font-specification:'Fira Code iScript';letter-spacing:0px;word-spacing:0px;fill:#000000;fill-opacity:1;stroke:none;stroke-width:0.264583px;stroke-linecap:butt;stroke-linejoin:miter;stroke-opacity:1"
       x="7.9811125"
       y="34.433632"
       id="text846"><tspan
         sodipodi:role="line"
         id="tspan844"
         x="7.9811125"
         y="34.433632"
         style="font-style:normal;font-variant:normal;font-weight:normal;font-stretch:normal;font-size:9.525px;font-family:Enriqueta;-inkscape-font-specification:Enriqueta;fill:#ffffff;fill-opacity:1;stroke-width:0.264583px">Intervention Mapping</tspan></text>
    <text
       id="text850"
       y="45.627541"
       x="8.7952147"
       style="font-style:normal;font-variant:normal;font-weight:normal;font-stretch:normal;font-size:9.525px;line-height:4.54603px;font-family:'Fira Code iScript';-inkscape-font-specification:'Fira Code iScript';letter-spacing:0px;word-spacing:0px;fill:#000000;fill-opacity:1;stroke:none;stroke-width:0.264583px;stroke-linecap:butt;stroke-linejoin:miter;stroke-opacity:1"
       xml:space="preserve"><tspan
         style="font-style:normal;font-variant:normal;font-weight:normal;font-stretch:normal;font-size:9.525px;font-family:Enriqueta;-inkscape-font-specification:Enriqueta;fill:#ffffff;fill-opacity:1;stroke-width:0.264583px"
         y="45.627541"
         x="8.7952147"
         id="tspan848"
         sodipodi:role="line">Work Book</tspan></text>
    <text
       xml:space="preserve"
       style="font-style:normal;font-variant:normal;font-weight:normal;font-stretch:normal;font-size:6.35px;line-height:6.35px;font-family:'Fira Code iScript';-inkscape-font-specification:'Fira Code iScript';letter-spacing:0px;word-spacing:0px;fill:#000000;fill-opacity:1;stroke:none;stroke-width:0.264583px;stroke-linecap:butt;stroke-linejoin:miter;stroke-opacity:1"
       x="8.0828753"
       y="139.3511"
       id="text854"><tspan
         id="tspan900"
         sodipodi:role="line"
         x="8.0828753"
         y="139.3511"
         style="font-style:normal;font-variant:normal;font-weight:normal;font-stretch:normal;font-family:Enriqueta;-inkscape-font-specification:Enriqueta;fill:#ffffff;fill-opacity:1;stroke-width:0.264583px">Gjalt-Jorn Peters, Nicole Oei &amp;</tspan><tspan
         id="tspan904"
         sodipodi:role="line"
         x="8.0828753"
         y="145.86472"
         style="font-style:normal;font-variant:normal;font-weight:normal;font-stretch:normal;font-family:Enriqueta;-inkscape-font-specification:Enriqueta;fill:#ffffff;fill-opacity:1;stroke-width:0.264583px">Rob Ruiter</tspan></text>
    <g
       id="g2630"
       transform="matrix(0.26458333,0,0,0.26458333,7.937506,151.85047)">
      <path
         style="fill:#aab2ab"
         d="M 3.4083297,0.45268464 116.76243,0.65404185 c 1.58383,0 2.99881,-0.23483394 2.99881,3.16052515 l -0.13878,37.329077 H 0.54733418 V 3.675801 c 0,-1.6743929 0.16206577,-3.22311636 2.86099552,-3.22311636 z"
         nodetypes="ccccccc"
         id="path3817_5_"
         inkscape:connector-curvature="0" />
      <path
         id="path120"
         d="M 117.7533,-1.417352e-6 H 2.2476335 C 1.0083193,-1.417352e-6 -2.0408688e-5,1.0082254 -2.0408688e-5,2.2469141 V 41.492978 c 0,0.279957 0.227098788688,0.50702 0.507563608688,0.50702 H 119.49241 c 0.28048,0 0.50757,-0.227073 0.50757,-0.50702 V 2.2469141 c 0,-1.2386887 -1.00834,-2.246915517352 -2.24668,-2.246915517352 z M 2.2476335,1.0150221 H 117.75331 c 0.67933,0 1.23155,0.5526294 1.23155,1.2319019 0,0 0,15.796336 0,27.220625 H 36.428267 c -3.025983,5.471006 -8.856684,9.185621 -15.547234,9.185621 -6.692497,0 -12.5212501,-3.711217 -15.5452952,-9.185621 H 1.0151167 c 0,-11.424289 0,-27.220625 0,-27.220625 -9.9e-6,-0.6792725 0.5531682,-1.2319019 1.2325168,-1.2319019 z"
         inkscape:connector-curvature="0" />
      <g
         transform="matrix(0.8674921,0,0,0.8673951,-387.30972,67.870882)"
         id="g5908_5_">
        <path
           style="fill:#ffffff"
           d="m 486.26599,-55.7066 c 0.006,8.68079 -7.02789,15.7215 -15.70813,15.72708 -8.68018,0.0056 -15.7215,-7.02786 -15.72705,-15.7081 0,-0.0067 0,-0.01227 0,-0.01898 -0.006,-8.68079 7.02783,-15.7215 15.70807,-15.72711 8.68134,-0.005 15.7226,7.02783 15.72711,15.70807 0,0.0062 0,0.01287 0,0.01904 z"
           rx="22.939548"
           type="arc"
           cy="264.3577"
           ry="22.939548"
           cx="296.35416"
           id="path5906_5_"
           inkscape:connector-curvature="0" />
        <g
           transform="translate(-289.6157,99.0653)"
           id="g5706_5_">
          <path
             d="m 772.94165,-167.5741 c 3.48486,3.48541 5.22778,7.75336 5.22778,12.80219 0,5.04938 -1.71277,9.27203 -5.13831,12.66794 -3.63586,3.57602 -7.93176,5.36374 -12.89001,5.36374 -4.89783,0 -9.11987,-1.77264 -12.66394,-5.31955 -3.54639,-3.54526 -5.31848,-7.78244 -5.31848,-12.71213 0,-4.92859 1.77209,-9.19598 5.31848,-12.80219 3.45459,-3.48651 7.67664,-5.22949 12.66394,-5.22949 5.04883,0 9.31458,1.74298 12.80054,5.22949 z m -23.11853,2.34485 c -2.94678,2.97638 -4.42017,6.46289 -4.42017,10.46179 0,3.9989 1.45886,7.45581 4.37427,10.37122 2.9176,2.9165 6.38904,4.37476 10.4176,4.37476 4.02856,0 7.53015,-1.47281 10.50708,-4.41895 2.82593,-2.73645 4.23889,-6.17767 4.23889,-10.32703 0,-4.11749 -1.4364,-7.61292 -4.30823,-10.48419 -2.87061,-2.87061 -6.34985,-4.30652 -10.43774,-4.30652 -4.08789,0 -7.54699,1.44318 -10.3717,4.32892 z m 7.75391,8.70319 c -0.44971,-0.98169 -1.12317,-1.47284 -2.02271,-1.47284 -1.58862,0 -2.38293,1.07007 -2.38293,3.20911 0,2.13953 0.79431,3.2085 2.38293,3.2085 1.04944,0 1.79895,-0.52075 2.24866,-1.56458 l 2.20276,1.17303 c -1.05042,1.86548 -2.62561,2.79901 -4.72546,2.79901 -1.62,0 -2.91772,-0.4967 -3.89209,-1.48956 -0.97546,-0.99341 -1.46326,-2.36334 -1.46326,-4.10852 0,-1.71503 0.50342,-3.07654 1.50806,-4.08502 1.00452,-1.00854 2.25757,-1.51257 3.75781,-1.51257 2.22058,0 3.8092,0.87488 4.77136,2.62286 z m 10.36389,0 c -0.45081,-0.98169 -1.11206,-1.47284 -1.98242,-1.47284 -1.62097,0 -2.43213,1.07007 -2.43213,3.20911 0,2.13953 0.81116,3.2085 2.43213,3.2085 1.05164,0 1.78772,-0.52075 2.20728,-1.56458 l 2.25195,1.17303 c -1.04822,1.86548 -2.62109,2.79901 -4.71765,2.79901 -1.61768,0 -2.91199,-0.4967 -3.88647,-1.48956 -0.97217,-0.99341 -1.45996,-2.36334 -1.45996,-4.10852 0,-1.71503 0.49451,-3.07654 1.48352,-4.08502 0.98779,-1.00854 2.24524,-1.51257 3.77344,-1.51257 2.21619,0 3.80371,0.87488 4.76135,2.62286 z"
             id="path5708_5_"
             inkscape:connector-curvature="0" />
        </g>
      </g>
      <g
         id="g126"
         transform="matrix(0.9937808,0,0,0.9936696,-437.12334,-74.436914)">
        <circle
           style="fill:#ffffff"
           id="circle128"
           r="10.80615"
           cy="90.231934"
           cx="491.94629" />
        <g
           id="g130">
          <path
             id="path132"
             d="m 495.07373,87.10498 c 0,-0.4165 -0.33789,-0.75391 -0.75391,-0.75391 h -4.77246 c -0.41602,0 -0.75391,0.3374 -0.75391,0.75391 v 4.77295 h 1.33105 v 5.65186 h 3.61719 v -5.65186 h 1.33203 v -4.77295 z"
             inkscape:connector-curvature="0" />
          <circle
             id="circle134"
             r="1.63232"
             cy="84.090332"
             cx="491.93359" />
        </g>
        <path
           style="clip-rule:evenodd;fill-rule:evenodd"
           id="path136"
           d="m 491.91846,78.3252 c -3.23145,0 -5.96777,1.12793 -8.20703,3.38379 -2.29785,2.3335 -3.44629,5.0957 -3.44629,8.28467 0,3.18897 1.14844,5.93164 3.44629,8.22705 2.29785,2.29395 5.03418,3.44189 8.20703,3.44189 3.21289,0 5.99805,-1.15674 8.35449,-3.47168 2.21973,-2.19727 3.3291,-4.92969 3.3291,-8.19727 0,-3.26758 -1.12891,-6.02881 -3.3877,-8.28467 -2.25879,-2.25586 -5.02343,-3.38378 -8.29589,-3.38378 z m 0.0303,2.0996 c 2.64844,0 4.89648,0.93408 6.74609,2.80127 1.87012,1.84717 2.80469,4.10352 2.80469,6.76758 0,2.68359 -0.91504,4.91064 -2.74609,6.68066 -1.92773,1.90576 -4.19629,2.8584 -6.80469,2.8584 -2.61035,0 -4.85938,-0.94287 -6.74805,-2.82959 -1.88867,-1.88623 -2.83301,-4.12256 -2.83301,-6.70947 0,-2.58691 0.9541,-4.84229 2.8623,-6.76758 1.83107,-1.86718 4.07032,-2.80127 6.71876,-2.80127 z"
           inkscape:connector-curvature="0" />
      </g>
      <g
         id="g138"
         enable-background="new    "
         transform="matrix(0.9937808,0,0,0.9936696,-437.12334,-74.436914)">
        <path
           style="fill:#ffffff"
           id="path140"
           d="m 488.56299,107.86719 c 0.31738,0 0.60742,0.0283 0.86914,0.084 0.26172,0.0557 0.48633,0.14746 0.67383,0.27539 0.18652,0.12695 0.33105,0.29688 0.43457,0.50781 0.10254,0.21191 0.1543,0.47266 0.1543,0.78418 0,0.33594 -0.0762,0.61523 -0.22949,0.83887 -0.15234,0.22461 -0.37891,0.40723 -0.67773,0.55078 0.41211,0.11816 0.71973,0.3252 0.92285,0.62109 0.20312,0.29589 0.30469,0.65234 0.30469,1.06934 0,0.33594 -0.0654,0.62695 -0.19629,0.87305 -0.13086,0.24512 -0.30762,0.44629 -0.5293,0.60156 -0.2207,0.15625 -0.47363,0.27148 -0.75684,0.3457 -0.28418,0.0752 -0.5752,0.1123 -0.875,0.1123 h -3.23633 v -6.66406 h 3.1416 z m -0.1875,2.69531 c 0.26172,0 0.47656,-0.0625 0.64453,-0.18652 0.16895,-0.12402 0.25293,-0.3252 0.25293,-0.60449 0,-0.15527 -0.0283,-0.2832 -0.084,-0.38184 -0.0566,-0.0996 -0.13086,-0.17676 -0.22461,-0.2334 -0.0938,-0.0557 -0.20117,-0.0947 -0.32227,-0.11621 -0.12207,-0.0215 -0.24805,-0.0322 -0.37891,-0.0322 h -1.37305 v 1.55469 z m 0.0859,2.82812 c 0.14355,0 0.28027,-0.0137 0.41113,-0.042 0.13086,-0.0283 0.24609,-0.0752 0.34668,-0.13965 0.0996,-0.0654 0.17871,-0.1543 0.23828,-0.2666 0.0586,-0.11133 0.0889,-0.25488 0.0889,-0.42871 0,-0.3418 -0.0967,-0.58594 -0.29004,-0.73242 -0.19336,-0.14551 -0.44922,-0.21875 -0.7666,-0.21875 h -1.59961 v 1.82812 z"
           inkscape:connector-curvature="0" />
        <path
           style="fill:#ffffff"
           id="path142"
           d="m 491.27393,107.86719 h 1.64258 l 1.56055,2.63184 1.55176,-2.63184 h 1.63379 l -2.47461,4.10645 v 2.55762 h -1.46875 v -2.59473 z"
           inkscape:connector-curvature="0" />
      </g>
      <g
         id="g144"
         enable-background="new    "
         transform="matrix(0.9937808,0,0,0.9936696,-437.12334,-74.436914)">
        <path
           style="fill:#ffffff"
           id="path146"
           d="m 538.91553,112.88379 c 0.0811,0.15527 0.1875,0.28125 0.32129,0.37793 0.13379,0.0967 0.29004,0.16797 0.4707,0.21484 0.17969,0.0469 0.36523,0.0703 0.55859,0.0703 0.12988,0 0.26953,-0.0107 0.41895,-0.0332 0.14844,-0.0215 0.28809,-0.0635 0.41895,-0.12598 0.12988,-0.0615 0.23828,-0.14746 0.32617,-0.25684 0.0859,-0.1084 0.12988,-0.24707 0.12988,-0.41504 0,-0.18066 -0.0576,-0.32617 -0.17285,-0.43848 -0.11426,-0.1123 -0.26562,-0.20508 -0.45117,-0.28027 -0.18652,-0.0742 -0.39844,-0.13965 -0.63379,-0.19629 -0.23633,-0.0557 -0.47559,-0.11816 -0.71777,-0.18652 -0.24902,-0.0625 -0.49121,-0.13867 -0.72754,-0.22852 -0.23535,-0.0898 -0.44727,-0.20703 -0.63379,-0.35059 -0.18555,-0.14258 -0.33691,-0.32129 -0.45117,-0.53613 -0.11523,-0.21484 -0.17285,-0.47461 -0.17285,-0.7793 0,-0.34277 0.0732,-0.63965 0.21875,-0.8916 0.14648,-0.25195 0.33789,-0.46191 0.57324,-0.63086 0.23633,-0.16797 0.50391,-0.29199 0.80273,-0.37305 0.29785,-0.0811 0.59668,-0.12109 0.89453,-0.12109 0.34863,0 0.68262,0.0391 1.00293,0.11719 0.31934,0.0772 0.60449,0.2041 0.85254,0.37793 0.24902,0.1748 0.44629,0.39746 0.59277,0.66797 0.14551,0.27148 0.21875,0.59961 0.21875,0.98535 h -1.42188 c -0.0127,-0.19922 -0.0537,-0.36426 -0.125,-0.49414 -0.0713,-0.13086 -0.16602,-0.2334 -0.28418,-0.30859 -0.11719,-0.0742 -0.25195,-0.12793 -0.40332,-0.1582 -0.15137,-0.0312 -0.31738,-0.0469 -0.49707,-0.0469 -0.11719,0 -0.23535,0.0127 -0.35254,0.0371 -0.11816,0.0254 -0.22461,0.0684 -0.32031,0.13086 -0.0967,0.0625 -0.1748,0.13965 -0.2373,0.2334 -0.0615,0.0938 -0.0928,0.21191 -0.0928,0.35449 0,0.13086 0.0244,0.2373 0.0742,0.31738 0.0498,0.0811 0.14746,0.15625 0.29395,0.22461 0.14649,0.0684 0.34766,0.13672 0.60547,0.20508 0.25781,0.0684 0.5957,0.15625 1.01172,0.26172 0.12402,0.0244 0.29688,0.0703 0.5166,0.13574 0.2207,0.0654 0.44043,0.16895 0.65723,0.3125 0.21777,0.14355 0.40527,0.33496 0.56445,0.57422 0.1582,0.23926 0.2373,0.5459 0.2373,0.91992 0,0.30469 -0.0596,0.58789 -0.17773,0.84961 -0.11816,0.26172 -0.29395,0.4873 -0.52734,0.67676 -0.2334,0.19043 -0.52246,0.33789 -0.86816,0.44336 -0.34473,0.10645 -0.74414,0.15918 -1.19922,0.15918 -0.36719,0 -0.72266,-0.0459 -1.06836,-0.13574 -0.3457,-0.0908 -0.65039,-0.23242 -0.91406,-0.42578 -0.26465,-0.19336 -0.47461,-0.44043 -0.63086,-0.73926 -0.15527,-0.29883 -0.23047,-0.65332 -0.22363,-1.06445 h 1.42188 c -3e-5,0.22364 0.04,0.41407 0.12107,0.56934 z"
           inkscape:connector-curvature="0" />
        <path
           style="fill:#ffffff"
           id="path148"
           d="m 547.17236,107.86719 2.49219,6.66406 h -1.52148 l -0.50391,-1.48438 h -2.49219 l -0.52344,1.48438 h -1.47461 l 2.52051,-6.66406 z m 0.084,4.08593 -0.83984,-2.44336 h -0.0195 l -0.86719,2.44336 z"
           inkscape:connector-curvature="0" />
      </g>
      <g
         id="g150"
         enable-background="new    "
         transform="matrix(0.9937808,0,0,0.9936696,-437.12334,-74.436914)">
        <path
           style="fill:#ffffff"
           id="path152"
           d="m 512.83057,107.86719 2.78418,4.4707 h 0.0156 v -4.4707 h 1.375 v 6.66406 h -1.46582 l -2.77344,-4.46191 h -0.0186 v 4.46191 h -1.375 v -6.66406 z"
           inkscape:connector-curvature="0" />
        <path
           style="fill:#ffffff"
           id="path154"
           d="m 522.56885,109.64258 c -0.0869,-0.14062 -0.19629,-0.26367 -0.32715,-0.36914 -0.13086,-0.10547 -0.27832,-0.18848 -0.44336,-0.24707 -0.16504,-0.0596 -0.33789,-0.0889 -0.51758,-0.0889 -0.33008,0 -0.61035,0.0635 -0.84082,0.19141 -0.23047,0.12695 -0.41699,0.29785 -0.55957,0.5127 -0.14355,0.21484 -0.24805,0.45898 -0.31348,0.73242 -0.0654,0.27344 -0.0977,0.55664 -0.0977,0.84863 0,0.28027 0.0322,0.55273 0.0977,0.81641 0.0654,0.26465 0.16992,0.50293 0.31348,0.71387 0.14258,0.21191 0.3291,0.38086 0.55957,0.50879 0.23047,0.12793 0.51074,0.19141 0.84082,0.19141 0.44727,0 0.79785,-0.13672 1.0498,-0.41113 0.25195,-0.27344 0.40625,-0.63477 0.46191,-1.08301 h 1.41895 c -0.0371,0.41699 -0.13379,0.79395 -0.28906,1.12988 -0.15527,0.33691 -0.36133,0.62305 -0.61621,0.86035 -0.25488,0.2373 -0.55371,0.41797 -0.89648,0.54297 -0.3418,0.125 -0.71875,0.1875 -1.12891,0.1875 -0.51074,0 -0.96973,-0.0889 -1.37793,-0.2666 -0.40723,-0.17676 -0.75195,-0.42188 -1.03223,-0.73242 -0.28027,-0.31152 -0.49609,-0.67773 -0.64551,-1.09766 -0.14941,-0.4209 -0.22461,-0.87305 -0.22461,-1.35938 0,-0.49805 0.0752,-0.95996 0.22461,-1.38672 0.14941,-0.42676 0.36523,-0.79883 0.64551,-1.11621 0.28028,-0.31738 0.625,-0.56641 1.03223,-0.74707 0.4082,-0.18066 0.86719,-0.27051 1.37793,-0.27051 0.36719,0 0.71387,0.0527 1.04004,0.15918 0.32715,0.10547 0.62012,0.25977 0.87793,0.46289 0.25879,0.20215 0.47168,0.45312 0.63965,0.75195 0.16797,0.29883 0.27344,0.6416 0.31738,1.02734 h -1.41895 c -0.0254,-0.16797 -0.0811,-0.32226 -0.16796,-0.46191 z"
           inkscape:connector-curvature="0" />
      </g>
      <g
         transform="matrix(0.621108,0,0,0.6210385,-285.77182,240.48957)"
         id="g6332_1_">
        <path
           style="fill:#ffffff"
           d="m 644.57642,-363.11569 c 0.008,9.4118 -7.61731,17.04779 -17.02979,17.05481 -9.4126,0.005 -17.047,-7.61725 -17.05493,-17.03137 0,-0.007 0,-0.0164 0,-0.0234 -0.006,-9.4118 7.6189,-17.04779 17.02991,-17.05481 9.4126,-0.007 17.047,7.61804 17.05481,17.02905 0,0.009 0,0.0164 0,0.0258 z"
           rx="29.209877"
           type="arc"
           cy="252.08646"
           ry="29.209877"
           cx="475.97119"
           id="path6334_1_"
           inkscape:connector-curvature="0" />
        <g
           transform="translate(-23.9521,-89.72962)"
           id="g6336_1_">
          <path
             d="m 651.36426,-292.05655 c -5.17188,0 -9.55005,1.80548 -13.13135,5.41333 -3.67651,3.73444 -5.51562,8.15399 -5.51562,13.25714 0,5.10315 1.83911,9.48993 5.51562,13.1626 3.67505,3.67194 8.05322,5.50787 13.13135,5.50787 5.14075,0 9.59546,-1.85236 13.36572,-5.55396 3.55164,-3.51721 5.32825,-7.88916 5.32825,-13.11652 0,-5.22742 -1.80627,-9.64697 -5.422,-13.25714 -3.61401,-3.60784 -8.03748,-5.41332 -13.27197,-5.41332 z m 0.0469,3.36096 c 4.23755,0 7.83447,1.49298 10.79541,4.48132 2.99072,2.95544 4.48596,6.56329 4.48596,10.82819 0,4.29376 -1.46399,7.85632 -4.3938,10.68994 -3.08276,3.04846 -6.71411,4.57269 -10.88757,4.57269 -4.17505,0 -7.77344,-1.5094 -10.79541,-4.5274 -3.02185,-3.01874 -4.53284,-6.59613 -4.53284,-10.73523 0,-4.1391 1.52502,-7.74847 4.57971,-10.82819 2.92823,-2.98834 6.51099,-4.48132 10.74854,-4.48132 z"
             id="path6338_1_"
             inkscape:connector-curvature="0" />
          <path
             d="m 643.08923,-276.02048 c 0.74377,-4.69849 4.05005,-7.20941 8.19543,-7.20941 5.95935,0 9.59216,4.32501 9.59216,10.09222 0,5.62817 -3.8656,9.99854 -9.68604,9.99854 -4.00464,0 -7.59058,-2.46332 -8.24219,-7.30084 h 4.70312 c 0.14062,2.51099 1.77039,3.39532 4.09851,3.39532 2.6532,0 4.37659,-2.46484 4.37659,-6.23206 0,-3.95471 -1.48901,-6.04614 -4.28442,-6.04614 -2.04846,0 -3.81726,0.74451 -4.19067,3.30237 l 1.36719,-0.009 -3.70154,3.70319 -3.70166,-3.70319 z"
             id="path6340_1_"
             inkscape:connector-curvature="0" />
        </g>
      </g>
      <g
         id="g2366"
         transform="translate(4.972327e-4,0.00962355)">
        <path
           style="fill:#ffffff"
           d="m 87.801399,14.981221 c 0.0048,5.500587 -4.451603,9.961917 -9.953251,9.966304 -5.500714,0.0034 -9.962985,-4.45211 -9.966848,-9.951763 0,-0.0058 0,-0.01019 0,-0.01454 -0.0039,-5.5010765 4.452572,-9.9624055 9.953251,-9.9667814 5.50068,-0.00341 9.96295,4.4521099 9.966848,9.9517284 0,0.0049 0,0.01019 0,0.01505 z"
           rx="29.209877"
           type="arc"
           cy="252.08646"
           ry="29.209877"
           cx="475.97119"
           id="path6372_1_"
           inkscape:connector-curvature="0" />
        <path
           d="m 86.070369,6.7455646 c -2.24512,-2.242292 -4.99278,-3.362732 -8.24368,-3.362732 -3.21268,0 -5.93132,1.12044 -8.15662,3.362732 -2.28405,2.319442 -3.42502,5.0635624 -3.42502,8.2337704 0,3.169502 1.14097,5.89522 3.42502,8.175023 2.28334,2.28122 5.00198,3.421479 8.15662,3.421479 3.19286,0 5.96033,-1.150166 8.30171,-3.449789 2.2062,-2.184252 3.30965,-4.900058 3.30965,-8.146713 0,-3.247361 -1.12256,-5.9921884 -3.36768,-8.2337704 z m -1.45169,14.8728804 c -1.916,1.894056 -4.17032,2.840378 -6.76297,2.840378 -2.59336,0 -4.82858,-0.93712 -6.70565,-2.812068 -1.87707,-1.874948 -2.8156,-4.097421 -2.8156,-6.667423 0,-1.087172 0.17164,-2.114891 0.51103,-3.083862 l 3.07288,1.360027 h -0.22154 v 1.378074 h 1.08753 c 0,0.194644 -0.01946,0.388581 -0.01946,0.582514 v 0.33054 h -1.06807 v 1.378074 h 1.262 c 0.17482,1.029132 0.56305,1.863623 1.08717,2.523993 1.08717,1.436821 2.83436,2.213272 4.73692,2.213272 1.24288,0 2.36828,-0.368761 3.02865,-0.738229 l -0.46644,-2.154525 c -0.40769,0.213752 -1.31933,0.504658 -2.21257,0.504658 -0.97109,0 -1.88308,-0.290902 -2.50452,-0.990204 -0.29126,-0.329833 -0.50466,-0.776451 -0.6402,-1.358965 h 4.22057 l 5.99714,2.654584 c -0.41547,0.736114 -0.94277,1.416303 -1.58687,2.039162 z m -7.54225,-6.071813 -0.02548,-0.01946 0.04388,0.01946 z m 3.61045,-0.913054 h 0.17342 v -1.378074 h -3.287 l -1.33525,-0.591008 c 0.11501,-0.258345 0.25091,-0.489441 0.40945,-0.670281 0.60198,-0.738937 1.45594,-1.048951 2.3881,-1.048951 0.85431,0 1.64987,0.251974 2.15453,0.46573 l 0.54358,-2.2132724 c -0.6993,-0.310015 -1.72773,-0.581808 -2.91187,-0.581808 -1.82469,0 -3.37794,0.737523 -4.48458,1.9797014 -0.2456,0.283824 -0.45865,0.602333 -0.65188,0.939244 l -3.8136,-1.6877374 c 0.36947,-0.554204 0.80406,-1.086465 1.3073,-1.593953 1.81974,-1.855836 4.04434,-2.783755 6.67662,-2.783755 2.63158,0 4.8668,0.927919 6.70565,2.783755 1.85725,1.8360194 2.78588,4.0776014 2.78588,6.7261704 0,0.872709 -0.0991,1.695876 -0.29445,2.471617 z"
           id="path45"
           inkscape:connector-curvature="0" />
      </g>
    </g>
    <rect
       ry="5"
       rx="5"
       y="53.629177"
       x="7.8562689"
       height="73.751518"
       width="95.601448"
       id="rect826"
       style="color:#000000;clip-rule:nonzero;display:inline;overflow:visible;visibility:visible;opacity:1;isolation:auto;mix-blend-mode:normal;color-interpolation:sRGB;color-interpolation-filters:linearRGB;solid-color:#000000;solid-opacity:1;fill:url(#linearGradient5280);fill-opacity:1;fill-rule:nonzero;stroke:none;stroke-width:5.76531;stroke-linecap:square;stroke-linejoin:miter;stroke-miterlimit:4;stroke-dasharray:none;stroke-dashoffset:0;stroke-opacity:1;color-rendering:auto;image-rendering:auto;shape-rendering:auto;text-rendering:auto;enable-background:accumulate" />
    <g
       transform="matrix(0.3516988,0,0,0.3516988,25.680348,60.528291)"
       id="g848">
      <circle
         id="path2991"
         style="fill:#7aaa44;fill-opacity:1;stroke:#bad417;stroke-width:7.9375;stroke-miterlimit:4;stroke-dasharray:none;stroke-opacity:1"
         cx="85.233856"
         cy="85.233856"
         r="81.265106" />
      <path
         id="path2990"
         d="m 156.26806,78.811522 c 0,5.047858 0.9899,13.122083 -0.98271,18.070075 -0.89971,5.732593 -0.6092,16.334533 -10.08436,20.467643 -24.54466,10.70646 -73.6111,10.38047 -73.6111,10.38047 l -31.003265,-9.08716 c 0,0 -3.280725,-69.836701 20.490917,-98.129046 6.773933,-8.062146 20.953817,-7.194291 31.639863,-7.194291 7.013101,0.740418 22.338705,4.277082 35.381685,14.733619 6.69231,5.365212 13.75001,10.794159 18.03932,18.509145 4.42115,7.952108 10.12965,23.530238 10.12965,32.249545 z"
         style="fill:#ffffff;fill-opacity:1;stroke:#ffffff;stroke-width:0.238056" />
      <path
         style="fill:#7aaa44;fill-opacity:1;stroke-width:0.264583"
         d="M 80.26229,158.26528 C 66.45127,156.89819 55.907529,153.36801 45.41408,146.59766 43.312934,145.242 38.472911,141.54485 36.60604,139.86945 20.89413,125.76902 12.137734,106.18063 12.13703,85.131359 12.136236,62.718796 22.308251,41.792591 40.045624,27.716617 65.544225,7.4815075 102.42309,6.8896076 128.58639,26.295551 c 2.63025,1.950913 9.47545,7.904054 9.49846,8.260617 0.006,0.09464 0.79155,1.005504 1.74544,2.02415 6.65003,7.101496 12.63173,17.811522 15.53455,27.814068 2.27537,7.840461 3.10417,14.080919 2.94737,22.192181 -0.16601,8.587129 -1.4187,15.493213 -4.27137,23.547913 -1.06777,3.01494 -4.07945,9.42275 -5.7203,12.17084 -11.73576,19.65494 -31.01804,32.38815 -53.725406,35.47798 -2.840268,0.38648 -12.13871,0.69916 -14.332844,0.48198 z m 0.492238,-39.96468 c 1.063535,-0.14577 1.227553,-0.25115 1.227553,-0.78871 0,-0.73897 -0.266766,-0.81275 -3.579548,-0.98996 -2.824675,-0.15111 -3.686569,-0.48374 -4.13363,-1.59527 -0.251179,-0.62451 -0.377428,-6.47991 -0.52261,-24.239051 -0.163968,-20.056851 -0.292516,-25.4 -0.611084,-25.4 -0.03175,0 -0.762866,0.285655 -1.624698,0.634791 -3.968247,1.607563 -11.040782,2.886477 -17.838846,3.225765 -3.600537,0.179703 -4.497917,0.377341 -4.497917,0.990627 0,0.750125 0.667941,0.96965 2.950311,0.96965 1.273421,0 2.927683,0.131331 3.676142,0.291846 2.354985,0.505055 2.224116,-0.686644 2.321475,21.139404 0.04641,10.404738 0.0049,19.798088 -0.0923,20.874118 -0.27545,3.05003 -0.364898,3.10394 -5.990267,3.61074 -1.894557,0.17068 -2.588721,0.72394 -1.471896,1.17311 0.667875,0.26861 28.291361,0.36281 30.187312,0.10294 z m 70.817422,-8.05037 c 0.15919,-0.59119 0.35253,-1.23931 0.42965,-1.44026 0.10213,-0.26615 -0.53066,-0.57465 -2.32976,-1.13586 l -2.46997,-0.77047 3.22737,-1.62086 c 3.04454,-1.52904 3.24305,-1.67733 3.50425,-2.61791 0.15229,-0.54838 0.27699,-1.11612 0.2771,-1.26164 1.2e-4,-0.14552 -1.10054,-0.6009 -2.44592,-1.01195 -4.48526,-1.370397 -6.66278,-2.003392 -6.71037,-1.950676 -0.0259,0.02872 -0.22702,0.662151 -0.44688,1.407631 l -0.39975,1.355415 2.357,0.70736 c 1.29635,0.38905 2.35699,0.76046 2.35699,0.82536 0,0.0649 -1.41242,0.82602 -3.13871,1.69138 -3.09553,1.55174 -3.1427,1.58907 -3.42786,2.71252 -0.15903,0.62652 -0.20512,1.21023 -0.10243,1.29713 0.10269,0.0869 1.02015,0.41233 2.0388,0.72318 1.01864,0.31084 2.98317,0.91815 4.36562,1.34956 1.38245,0.43142 2.53872,0.79128 2.56949,0.79968 0.0308,0.008 0.18619,-0.46841 0.34538,-1.05959 z m 1.5713,-14.264965 c 1.89679,-0.967668 2.80861,-2.995774 2.58717,-5.754481 -0.15525,-1.934027 -0.964,-3.213833 -2.57792,-4.079385 -1.16627,-0.625473 -3.27841,-0.638421 -4.47661,-0.02744 -2.82347,1.43973 -3.77252,5.861815 -1.84039,8.575246 1.2349,1.734244 4.23161,2.345233 6.30775,1.286063 z m -3.34627,-2.654363 c -1.97166,-0.794195 -1.71321,-4.094901 0.36142,-4.615601 0.87177,-0.2188 2.40039,0.294328 2.73405,0.917768 0.29395,0.549254 0.34935,2.107962 0.0982,2.762478 -0.19443,0.506685 -1.46151,1.209521 -2.13761,1.185706 -0.26189,-0.0092 -0.73711,-0.12188 -1.05605,-0.250351 z m 2.0351,-11.513643 c 1.23693,-0.08203 2.65028,-0.211447 3.14079,-0.287589 l 0.89183,-0.138438 -0.12595,-1.310753 c -0.0693,-0.720916 -0.18391,-1.368719 -0.25476,-1.439566 -0.11407,-0.114076 -5.16732,0.218641 -8.01753,0.527891 -0.58209,0.06316 -1.14763,0.12088 -1.25678,0.128275 -0.10914,0.0074 -0.19843,0.588915 -0.19843,1.292265 0,0.703352 0.0893,1.368623 0.19843,1.47838 0.10915,0.10976 0.91282,0.131863 1.78594,0.04912 0.87313,-0.08274 2.59953,-0.217556 3.83646,-0.299588 z m 2.34818,-7.434598 c 0.56468,-0.112938 0.82682,-0.318913 0.82682,-0.649682 0,-0.421986 -1.61797,-7.469359 -2.02052,-8.800735 -0.12214,-0.403981 -0.31328,-0.457194 -1.11398,-0.310139 -0.5316,0.09763 -1.04808,0.257545 -1.14774,0.355365 -0.0996,0.09782 -0.0153,0.887272 0.1874,1.754346 0.20272,0.867074 0.34378,1.597255 0.31348,1.622623 -0.0303,0.02537 -1.54338,0.398195 -3.36239,0.828501 l -3.30729,0.782372 0.0698,1.289627 c 0.0384,0.709293 0.15747,1.375884 0.26458,1.481312 0.10712,0.105426 1.62351,-0.156646 3.36976,-0.582387 1.74625,-0.425741 3.31783,-0.775597 3.49241,-0.777457 0.17775,-0.0019 0.45484,0.695129 0.62974,1.584118 0.32499,1.651884 0.39041,1.703634 1.7979,1.422136 z m -7.28019,-12.005469 c 2.13357,-1.018646 3.99703,-1.852083 4.14103,-1.852083 0.41366,0 0.30745,-0.725374 -0.27273,-1.862624 -0.294,-0.576287 -0.57489,-1.047793 -0.6242,-1.047793 -0.0493,0 -0.99158,0.416719 -2.09395,0.926042 -1.10236,0.509323 -2.12239,0.926042 -2.26672,0.926042 -0.14434,0 0.32029,-1.440987 1.0325,-3.202197 l 1.29492,-3.202194 -0.55319,-1.097285 c -0.30426,-0.603504 -0.57926,-1.128056 -0.61111,-1.165672 -0.0318,-0.03761 -1.11854,0.42224 -2.41487,1.021895 -1.29633,0.599654 -3.22016,1.489617 -4.27519,1.977691 -1.05503,0.488077 -1.91823,1.015233 -1.91823,1.171462 0,0.156225 0.24373,0.761799 0.54162,1.345715 0.61883,1.213004 0.68842,1.211424 3.25046,-0.07371 0.84871,-0.425723 1.64579,-0.737616 1.77129,-0.6931 0.1255,0.04452 -0.3535,1.486498 -1.06443,3.2044 l -1.29261,3.12346 0.5041,1.17602 c 0.27725,0.646811 0.6094,1.17602 0.7381,1.17602 0.1287,0 1.97964,-0.833438 4.11321,-1.852084 z m -9.41436,-10.466043 c 0.32342,-0.226534 0.58804,-0.533233 0.58804,-0.681556 0,-0.148323 -0.53625,-0.966571 -1.19166,-1.818328 l -1.19166,-1.548651 0.81002,-0.576781 c 0.44551,-0.317233 0.83746,-0.53403 0.871,-0.481775 0.0335,0.05226 0.57585,0.778198 1.20513,1.613204 l 1.14415,1.518195 0.76401,-0.544023 c 0.4202,-0.299214 0.76401,-0.600556 0.76401,-0.669652 0,-0.0691 -0.47625,-0.756417 -1.05834,-1.527381 -1.21628,-1.610948 -1.25253,-1.766557 -0.5184,-2.225027 0.69129,-0.431718 0.83805,-0.327729 1.99293,1.412182 0.527,0.793953 1.0359,1.44296 1.13089,1.442238 0.095,-7.94e-4 0.49801,-0.268613 0.89561,-0.595312 l 0.7229,-0.593998 -2.11908,-2.860146 -2.11907,-2.860148 -1.40511,1.008065 c -0.77281,0.554434 -2.49104,1.781969 -3.8183,2.727854 -1.32727,0.945886 -2.41818,1.843662 -2.42425,1.995062 -0.0138,0.34436 3.90665,5.677855 4.17359,5.677855 0.10755,0 0.46017,-0.185346 0.78359,-0.411877 z M 69.477569,49.765693 c 1.402202,-0.661286 2.732558,-2.034551 3.674168,-3.792667 0.385929,-0.720585 0.495969,-1.488318 0.495969,-3.460332 0,-2.358181 -0.05555,-2.624143 -0.79942,-3.827322 -0.964718,-1.560396 -2.661274,-2.909203 -4.172643,-3.317365 -0.612343,-0.16537 -2.065853,-0.248697 -3.23002,-0.185174 -2.404351,0.131191 -3.791042,0.70825 -5.280014,2.197222 -1.608582,1.608582 -1.863736,2.332212 -1.863736,5.285679 0,2.968903 0.276815,3.752496 1.947381,5.512522 1.292447,1.36166 2.75395,2.078485 4.667203,2.289125 2.043932,0.225031 2.863405,0.09896 4.561112,-0.701688 z M 131.26504,40.40877 c 4.1821,-1.719599 5.83246,-2.437104 6.09267,-2.648831 0.1155,-0.09398 -0.32237,-0.607121 -0.97306,-1.14031 l -1.18306,-0.969428 -1.98343,0.903878 c -3.36219,1.532197 -3.21034,1.595966 -2.2578,-0.948148 1.20914,-3.229446 1.2057,-3.020282 0.0663,-4.036218 -0.5625,-0.501566 -1.10486,-0.829522 -1.20523,-0.72879 -0.26455,0.265507 -3.38938,9.049896 -3.38938,9.528096 0,0.517866 0.76898,1.370674 1.23595,1.370674 0.1981,0 1.81675,-0.598914 3.59701,-1.330923 z m -8.45991,-6.337017 c 0.0526,-2.02578 0.0822,-2.119167 0.67074,-2.120376 1.00746,-0.0021 2.16264,-1.370558 2.16147,-2.560601 -10e-4,-1.479042 -0.75598,-2.486853 -2.80795,-3.750506 -1.0017,-0.61687 -2.08309,-1.305472 -2.40308,-1.530223 -0.56901,-0.399645 -0.62457,-0.342593 -2.52328,2.591232 -2.57686,3.981648 -3.11324,4.86968 -3.10934,5.14777 0.004,0.296688 1.73008,1.423977 2.18016,1.423977 0.18632,0 0.72907,-0.652542 1.20611,-1.450097 0.78357,-1.310039 0.91731,-1.418889 1.38473,-1.126979 0.43711,0.272981 0.56656,0.610579 0.58236,1.518743 0.001,0.07276 -0.0715,0.800327 -0.16161,1.616815 l -0.16391,1.484522 1.25476,0.784688 c 1.54647,0.967121 1.65426,0.840616 1.72884,-2.028965 z m -1.85823,-4.717325 -0.85497,-0.45552 0.52035,-0.855649 c 0.62757,-1.031949 0.87898,-1.058024 1.75498,-0.182023 0.6114,0.611396 0.63874,0.726154 0.29606,1.242269 -0.5028,0.757259 -0.70939,0.787458 -1.71642,0.250923 z m -8.53422,0.205949 c 0.18276,-0.44123 0.2865,-0.835078 0.23053,-0.875223 -0.056,-0.04014 -0.90543,-0.406908 -1.88769,-0.815036 -1.85496,-0.770729 -2.12829,-1.171504 -1.44048,-2.112142 0.32815,-0.448776 0.42715,-0.438058 1.9764,0.214013 1.93155,0.812975 2.07389,0.827127 2.24747,0.223433 0.0732,-0.254662 0.2126,-0.654942 0.30974,-0.889511 0.13764,-0.332409 -0.16217,-0.560826 -1.35905,-1.035447 -2.08684,-0.827529 -2.25425,-0.975781 -1.89112,-1.674699 0.16217,-0.312142 0.32536,-0.604236 0.36264,-0.649099 0.0373,-0.04486 0.79147,0.223028 1.67598,0.595312 2.05153,0.863476 2.30549,0.850839 2.64803,-0.131778 l 0.2819,-0.808659 -1.64508,-0.729758 c -2.19968,-0.975778 -4.94623,-1.981535 -5.0673,-1.855592 -0.17837,0.185546 -3.61814,8.760328 -3.53681,8.816684 0.39235,0.271849 6.00121,2.495791 6.33162,2.510523 0.24075,0.01074 0.57757,-0.33482 0.76322,-0.783021 z m -12.3408,-7.024267 0.75959,-3.455627 1.68635,0.316901 1.68636,0.316902 0.28343,-1.052546 c 0.15588,-0.5789 0.21479,-1.121176 0.1309,-1.205058 -0.18762,-0.187624 -9.504465,-2.161427 -9.628835,-2.039901 -0.174008,0.170028 -0.538001,2.087073 -0.429585,2.262496 0.06056,0.09799 0.678333,0.255322 1.372825,0.349621 2.008872,0.272769 1.981242,0.190832 1.25122,3.710475 -0.357484,1.723533 -0.649971,3.28545 -0.649971,3.470931 0,0.339116 1.641322,0.908251 2.38125,0.825706 0.285512,-0.03185 0.610016,-1.013915 1.156466,-3.4999 z m -23.801354,2.5137 c 0.144381,-0.133807 -0.07485,-2.064102 -0.544888,-4.797729 -0.878197,-5.107361 -0.583763,-4.669638 -2.892576,-4.300292 l -0.814644,0.13032 0.791541,4.768758 0.791538,4.768758 1.213731,-0.172966 c 0.667549,-0.09513 1.322435,-0.273714 1.455298,-0.396849 z M 82.8243,22.623547 c 0.02666,-1.055026 0.03401,-2.18612 0.01633,-2.513542 -0.01767,-0.327422 0.05991,-0.595312 0.172408,-0.595312 0.112495,0 1.202603,1.131093 2.422459,2.513541 l 2.21792,2.513542 h 1.397664 1.397664 v -4.736963 -4.736965 l -1.345094,-0.09168 c -0.739804,-0.05043 -1.394648,-0.04207 -1.455208,0.01856 -0.06056,0.06064 -0.110107,1.161963 -0.110107,2.447397 0,1.285434 -0.09135,2.337152 -0.202996,2.337152 -0.111649,0 -1.210926,-1.131093 -2.442837,-2.513541 -2.222069,-2.4936 -2.249601,-2.513542 -3.470312,-2.513542 -1.559348,0 -1.548514,-0.0383 -1.55316,5.490104 l -0.0036,4.299479 h 1.455209 1.455208 l 0.04847,-1.918229 z"
         id="path3033" />
      <path
         style="fill:#003782;fill-opacity:1;stroke-width:0.264583"
         d="m 66.636248,154.01586 c -2.511803,-0.86721 -3.790603,-2.49694 -3.745881,-4.77384 0.02553,-1.29988 0.627669,-2.86891 1.427869,-3.72069 1.426628,-1.51857 4.716262,-1.58255 7.55377,-0.1469 l 1.428594,0.7228 -0.169291,1.05869 c -0.09311,0.58229 -0.212448,1.10185 -0.26519,1.1546 -0.05274,0.0527 -0.55331,-0.20483 -1.112364,-0.57239 -2.291273,-1.50642 -4.637447,-1.27823 -5.604684,0.5451 -0.498234,0.93922 -0.354605,1.87368 0.421031,2.73925 0.857171,0.95656 2.58985,1.48377 2.828917,0.86077 0.194236,-0.50617 -0.04189,-0.87064 -0.564046,-0.87064 -0.330235,0 -0.383837,-0.19746 -0.260284,-0.95883 0.08558,-0.52735 0.19744,-1.00066 0.248579,-1.0518 0.05114,-0.0512 0.859906,0.12595 1.797253,0.39355 1.607024,0.45877 1.702242,0.53011 1.66873,1.25024 -0.01955,0.42004 -0.236352,1.44832 -0.481796,2.28507 l -0.446257,1.52135 -1.767162,-0.0126 c -0.971939,-0.007 -2.302944,-0.19762 -2.957788,-0.42371 z m -10.60855,-3.79402 c -0.917057,-0.48472 -0.983189,-0.62162 -1.839246,-3.80743 -0.488392,-1.81755 -0.986256,-3.2439 -1.106366,-3.16967 -0.12011,0.0742 -0.693298,1.07952 -1.273749,2.23398 l -1.055367,2.09902 -1.318239,-0.668 -1.318242,-0.668 2.145951,-4.2953 c 1.180272,-2.36241 2.177664,-4.3305 2.216428,-4.37354 0.03876,-0.043 0.605713,0.18179 1.25989,0.49961 1.103974,0.53635 1.221314,0.69402 1.633519,2.19492 0.244261,0.88938 0.689705,2.45007 0.989875,3.46821 l 0.545769,1.85116 1.164056,-2.31658 1.164058,-2.31658 1.318855,0.66832 c 0.725371,0.36757 1.318858,0.73092 1.318858,0.80743 0,0.46533 -4.335097,8.31649 -4.586758,8.30694 -0.169418,-0.006 -0.7361,-0.23795 -1.259292,-0.51449 z m -13.336241,-7.96902 c -0.582083,-0.44416 -1.027308,-0.92087 -0.989386,-1.05937 0.139065,-0.50791 5.428208,-7.37876 5.680125,-7.37876 0.143108,0 0.719966,0.36415 1.281907,0.80921 l 1.021715,0.80922 -2.835722,3.8096 c -1.559648,2.09529 -2.895254,3.81142 -2.968014,3.81364 -0.07276,0.002 -0.608542,-0.35938 -1.190625,-0.80354 z m -3.175,-7.75597 c -0.436563,-0.1955 -1.202148,-0.72662 -1.7013,-1.18027 -0.499152,-0.45364 -0.981004,-0.82481 -1.070782,-0.82481 -0.08978,0 -0.62828,0.47625 -1.196668,1.05834 -0.568389,0.58208 -1.164508,1.05833 -1.324711,1.05833 -0.342341,0 -1.982581,-1.63753 -1.982581,-1.97931 0,-0.12888 1.518047,-1.69708 3.373438,-3.48489 l 3.373437,-3.25056 1.937626,1.90998 c 1.065694,1.0505 2.107491,2.2315 2.315104,2.62445 0.797192,1.50887 0.218173,3.28981 -1.304499,4.01236 -1.08689,0.51577 -1.378095,0.52255 -2.419064,0.0564 z m 1.362567,-3.20362 c 0.07813,-0.20359 -0.123357,-0.7429 -0.447739,-1.19845 l -0.589788,-0.82828 -0.823978,0.8335 -0.823979,0.83351 0.743371,0.64771 c 0.602676,0.52513 0.843367,0.5942 1.271717,0.36495 0.290589,-0.15552 0.592267,-0.44934 0.670396,-0.65294 z m 66.899936,-2.78698 c -2.18282,-2.78549 -4.74266,-6.04745 -5.68855,-7.24879 -0.94588,-1.20134 -3.057325,-3.89781 -4.692093,-5.99216 l -2.972308,-3.8079 3.964496,-0.073 3.964495,-0.073 V 96.977799 c 0,-7.887374 -0.10112,-14.220483 -0.22484,-14.08217 -0.26921,0.300959 -7.925887,9.799265 -9.267155,11.496146 -0.517607,0.654844 -1.011137,1.250156 -1.096733,1.322917 -0.08559,0.07276 -1.387009,1.680104 -2.892028,3.571875 -1.505021,1.891773 -2.907707,3.579203 -3.11708,3.749853 -1.006623,0.82044 -1.560195,0.32108 -6.82295,-6.154773 l -5.141246,-6.32633 -0.02313,-10.31875 c -0.02064,-9.209881 -0.218553,-14.472121 -0.557011,-14.810578 -0.06355,-0.06355 -1.342274,0.291954 -2.841599,0.790016 -4.981492,1.654802 -9.335947,2.405875 -16.038102,2.766312 -2.328333,0.125216 -4.441692,0.310369 -4.696354,0.411453 -0.433406,0.172032 -0.463021,-0.232616 -0.463021,-6.326812 l -8e-6,-6.510599 8.532813,0.0058 8.532812,0.0058 2.38125,2.937645 c 3.151275,3.887594 9.572099,11.717586 12.986155,15.836206 1.507836,1.819011 2.900669,3.527325 3.095186,3.796252 0.397687,0.549831 -0.600279,1.677057 11.325203,-12.792085 3.418245,-4.147344 6.617488,-8.046641 7.109438,-8.665104 l 0.89445,-1.124479 h 8.55468 8.55467 V 83.934051 111.3117 l 4.06434,0.0729 4.06434,0.0729 -6.5918,8.33438 c -3.6255,4.5839 -7.23242,9.16781 -8.01539,10.18646 -0.78296,1.01864 -1.75896,2.24368 -2.16888,2.72231 l -0.74531,0.87023 -3.96875,-5.06453 z m -76.25556,-2.8843 c -0.467119,-0.28482 -1.167548,-0.99875 -1.556512,-1.58651 -0.388964,-0.58777 -0.782273,-1.06867 -0.87402,-1.06867 -0.09174,0 -0.800264,0.4266 -1.57449,0.94799 -0.774224,0.5214 -1.438889,0.90835 -1.477034,0.8599 -0.385125,-0.4892 -1.473845,-2.23276 -1.473845,-2.36034 0,-0.0908 1.549953,-1.22398 3.44434,-2.51826 1.89439,-1.29429 3.668094,-2.50847 3.941567,-2.6982 0.453125,-0.31435 0.631491,-0.15008 2.011024,1.85209 1.709129,2.48052 1.980152,3.06524 1.980152,4.27205 0,1.0315 -0.566365,1.89485 -1.590421,2.42441 -1.026758,0.53096 -1.812488,0.49641 -2.830761,-0.12446 z m 1.356833,-2.55119 c 0.601718,-0.2309 0.455605,-1.60242 -0.260463,-2.44487 -0.12912,-0.15191 -1.702271,0.85017 -1.702271,1.08432 0,0.11927 0.192286,0.51032 0.427304,0.869 0.435333,0.6644 0.789509,0.77779 1.53543,0.49155 z m -11.20386,-5.54596 c -0.301652,-0.68193 -0.548458,-1.30752 -0.548458,-1.3902 0,-0.0827 0.31558,-0.47972 0.701286,-0.88231 l 0.701287,-0.73199 -0.801106,-1.79603 c -0.789842,-1.77078 -0.816671,-1.79719 -1.908175,-1.87819 -1.034748,-0.0768 -1.140576,-0.16032 -1.619972,-1.27871 -0.282096,-0.6581 -0.512903,-1.24621 -0.512903,-1.30691 0,-0.0607 2.366587,-0.11035 5.259086,-0.11035 h 5.259083 l 0.56175,1.30582 c 0.308962,0.7182 0.561748,1.44696 0.561748,1.61946 0,0.28748 -6.484985,7.42002 -6.916852,7.60752 -0.103573,0.045 -0.435123,-0.47617 -0.736774,-1.15811 z m 3.006844,-6.67681 c -0.824249,-0.0441 -1.563293,-0.0156 -1.642324,0.0635 -0.07903,0.079 0.07381,0.62604 0.339656,1.21557 l 0.483351,1.07188 1.158976,-1.13533 1.158973,-1.13533 z M 49.173748,94.584487 V 70.964702 l 2.976563,0.19612 c 3.914391,0.257913 4.529031,0.382542 5.12305,1.038796 0.479134,0.529334 0.502275,1.391404 0.571733,21.298892 0.03981,11.41097 -0.02659,21.13188 -0.14755,21.60202 -0.29895,1.16186 -1.161325,1.52041 -4.098645,1.7041 -2.832618,0.17715 -3.752069,0.43897 -3.534309,1.00645 0.102002,0.26581 -0.01786,0.39319 -0.369978,0.39319 -0.514207,0 -0.520864,-0.3019 -0.520864,-23.619783 z M 16.15917,102.78872 c -0.151222,-0.76202 -0.235484,-1.42582 -0.187245,-1.47513 0.09121,-0.0932 1.011118,-0.3035 3.696345,-0.84493 l 1.583066,-0.31919 -1.781503,-0.898122 c -0.979827,-0.493966 -1.781501,-0.992891 -1.781501,-1.108723 0,-0.115832 0.535781,-0.838287 1.190625,-1.605455 0.654844,-0.76717 1.190625,-1.428477 1.190625,-1.469572 0,-0.04109 -1.160859,0.136739 -2.579687,0.395187 -1.418828,0.258447 -2.595547,0.450619 -2.61493,0.42705 -0.101397,-0.123298 -0.577181,-2.693622 -0.510879,-2.759924 0.04288,-0.04288 2.175518,-0.472157 4.73919,-0.953944 5.150739,-0.967971 4.732951,-1.041599 5.066522,0.892892 0.144156,0.836003 0.01865,1.095218 -1.290735,2.666063 l -1.450417,1.740022 1.803321,0.974013 c 2.143328,1.157663 2.280507,1.306645 2.515454,2.731913 0.215443,1.30693 0.581004,1.13836 -4.487214,2.06919 -2.037292,0.37417 -3.9566,0.73517 -4.265128,0.80222 -0.49171,0.10687 -0.594903,-0.0491 -0.835909,-1.26356 z"
         id="path3031" />
    </g>
  </g>
</svg>
